#N canvas -8 -8 1600 815 10;
#X floatatom 8 46 5 0 0 0 - - -;
#X obj 82 88 list prepend send;
#X obj 79 118 list trim;
#X obj 79 195 netsend -u -b;
#X msg 41 153 connect localhost 57120;
#X msg 40 283 disconnect;
#X obj 140 222 tgl 15 0 empty empty empty 17 7 0 10 -262144 -1 -1 1
1;
#X obj 87 33 teclado;
#X obj 81 60 oscformat /chat;
#X obj 353 77 oscformat /oxo;
#N canvas 0 50 450 300 teclado2 0;
#X obj 112 33 key;
#X floatatom 112 58 5 0 0 0 - - -;
#X obj 114 118 bng 15 250 50 0 empty empty empty 17 7 0 10 -262144
-1 -1;
#X obj 121 171 mtof;
#X floatatom 121 196 5 0 0 0 - - -;
#X obj 111 87 select 104;
#X msg 120 146 80;
#X obj 112 231 outlet;
#X connect 0 0 1 0;
#X connect 1 0 5 0;
#X connect 2 0 6 0;
#X connect 3 0 4 0;
#X connect 4 0 7 0;
#X connect 5 0 2 0;
#X connect 6 0 3 0;
#X restore 354 55 pd teclado2;
#X obj 355 106 list prepend send;
#X obj 354 134 list trim;
#X obj 379 251 netsend -u -b;
#X msg 308 160 connect localhost 57120;
#X msg 494 234 disconnect;
#X obj 181 222 tgl 15 0 empty empty empty 17 7 0 10 -262144 -1 -1 1
1;
#X text 193 141 Hacer doble click para establecer conexi贸n con SC
;
#X text 358 16 Controles para letra "h";
#X text 18 8 Controladores para Letra "J";
#X text 8 302 Click para desconectar comunicaci贸n con SC;
#X text 488 212 Click para desconectar comunicaci贸n con SC;
#X text 90 247 Toggles indicadores de activaci贸n;
#X connect 1 0 2 0;
#X connect 2 0 3 0;
#X connect 3 0 6 0;
#X connect 4 0 3 0;
#X connect 5 0 3 0;
#X connect 7 0 0 0;
#X connect 7 0 8 0;
#X connect 8 0 1 0;
#X connect 9 0 11 0;
#X connect 10 0 9 0;
#X connect 11 0 12 0;
#X connect 12 0 13 0;
#X connect 13 0 16 0;
#X connect 14 0 13 0;
#X connect 15 0 13 0;

